# xmcd
#
# Track frame offsets:
# 150
# 17387
# 32182
# 45430
# 58672
# 74282
# 90022
# 107712
# 122430
# 139312
# 153087
# 166797
# 182027
# 194085
# 214275
# 227425
# 237312
# 252470
# 265297
# 280052
# 300642
# 319105
# 335887
#
# Disc length: 4663 seconds
#
# Revision: 0
# Processed by: cddbd v1.5.1PL0 Copyright (c) Steve Scherf et al.
# Submitted via: Axialis_AX_CDPlayer 2.6
#
DISCID=40123517
DTITLE=O C Smith - Hickory Holler Revisited and For Once In My Life (Double 
DTITLE=Album \nCD)
DYEAR=1900
DGENRE=
TTITLE0=The Son Of Hickory Holler's Tramp
TTITLE1=Sitting On The Dock Of The Bay
TTITLE2=Main Street Mission
TTITLE3=By The Time I Get To Phoenix
TTITLE4=Long Black Limousine
TTITLE5=The House Next Door
TTITLE6=Little Green Apples
TTITLE7=Take Time To Know Her
TTITLE8=Honey (I Miss You)
TTITLE9=The Best Man
TTITLE10=Seven Days
TTITLE11=Isn't It Lonely Together
TTITLE12=For Once In My Life
TTITLE13=Hey Jude
TTITLE14=Wichita Lineman
TTITLE15=Promises
TTITLE16=I Ain't The Worryin' Kind
TTITLE17=Melodee
TTITLE18=Stormy
TTITLE19=Cycles
TTITLE20=Keep On Keepin' On
TTITLE21=Sounds Of Goodbye
TTITLE22=Friend Lover Woman Wife (Bonus Track)
EXTD=
EXTT0=
EXTT1=
EXTT2=
EXTT3=
EXTT4=
EXTT5=
EXTT6=
EXTT7=
EXTT8=
EXTT9=
EXTT10=
EXTT11=
EXTT12=
EXTT13=
EXTT14=
EXTT15=
EXTT16=
EXTT17=
EXTT18=
EXTT19=
EXTT20=
EXTT21=
EXTT22=
PLAYORDER=
